<svg xmlns="http://www.w3.org/2000/svg" xmlns:xlink="http://www.w3.org/1999/xlink" width="28" height="20" viewBox="0 0 28 20">
    <defs>
        <rect id="a" width="28" height="20" rx="2"/>
    </defs>
    <g fill="none" fill-rule="evenodd">
        <mask id="b" fill="#fff">
            <use xlink:href="#a"/>
        </mask>
        <use fill="#00B0C1" xlink:href="#a"/>
        <path fill="#FFF" d="M17.25 15h-2.5V8.5h-1.5V15h-2.5V8.5h-1.5V15h-2.5a.75.75 0 1 0 0 1.5h14.5a.75.75 0 1 0 0-1.5h-2.5V8.5h-1.5V15z" mask="url(#b)"/>
        <path fill="#FFF" fill-rule="nonzero" d="M14 4.422L9.34 7.75h9.32L14 4.422zm.436-1.532l7 5c.594.424.294 1.36-.436 1.36H7c-.73 0-1.03-.936-.436-1.36l7-5a.75.75 0 0 1 .872 0z" mask="url(#b)"/>
    </g>
</svg>
