<svg xmlns="http://www.w3.org/2000/svg" width="142" height="110"><defs><linearGradient id="a" x1="0%" y1="-99.426%" y2="160.056%"><stop stop-color="#00BECF" offset="0%"/><stop stop-color="#00B2C2" offset="100%"/></linearGradient></defs><g fill="url(#a)" fill-rule="evenodd"><path fill-rule="nonzero" d="M2.996 85c-.55 0-.996-.445-.996-.997V47.997c0-.55.447-.997 1.006-.997H11v-2H3.006C1.344 45 0 46.34 0 47.997v36.006C0 85.66 1.34 87 2.996 87h101.386v-2H2.996zm135.998-38c.558 0 1.006.446 1.006.997v36.006c0 .55-.448.997-.995.997h-5.448v2h5.448c1.65 0 2.995-1.344 2.995-2.997V47.997c0-1.658-1.346-2.997-3.006-2.997H67v2h71.994z"/><path fill-rule="nonzero" d="M66 50H12V17h-2v34c0 .552.448 1 1 1h56c.552 0 1-.448 1-1V17h-2v33z"/><path fill-rule="nonzero" d="M38.382 39.786c.363.285.873.285 1.236 0l28-22c.56-.44.494-1.304-.124-1.655L60 11.89V9c0-.552-.448-1-1-1l-5.747-.007L39.496.133c-.308-.177-.686-.177-.994 0l-13.94 8L25.057 8H19c-.552 0-1 .448-1 1l-.026 2.91-7.466 4.22c-.62.35-.685 1.217-.126 1.656l28 22zM19.492 13.35c.314-.177.508-.51.508-.87V10h5.058c.175 0 .347-.046.498-.133l13.448-7.713 13.5 7.714c.15.087.322.132.496.132h5v2.45c0 .36.193.69.506.87l6.634 3.87-26.156 20.526L12.758 17.11l6.734-3.76z"/><path fill-rule="nonzero" d="M58 10v13l.375-.78-20 16h1.25l-20-16L20 23V10h38zM18 9v14c0 .304.138.59.375.78l20 16c.366.293.884.293 1.25 0l20-16c.237-.19.375-.476.375-.78V9c0-.552-.448-1-1-1H19c-.552 0-1 .448-1 1z"/><path d="M38.406 26.022h1.206l.666-7.992v-.63h-2.556v.63l.684 7.992zM37.812 30h2.394v-2.466h-2.394V30z"/><path fill-rule="nonzero" d="M30.707 32.707l-1.414-1.414-19 19 1.414 1.414m37-20.414l-1.414 1.414 19 19 1.414-1.414"/><circle cx="89" cy="57" r="2"/><circle cx="89" cy="66" r="2"/><circle cx="89" cy="75" r="2"/><circle cx="109" cy="57" r="2"/><circle cx="129" cy="57" r="2"/><path d="M21.877 69.574c0-.194-.207-.387-.413-.387h-2.13c-.207 0-.413.193-.413.387v2.063c0 .194.21.387.42.387h2.2c.21 0 .41-.193.41-.387v-2.063h-.06zm-2.75-.71c-.137.13-.412.13-.55 0l-2.474-2.32c-.137-.13-.137-.387 0-.516l2.474-2.257c.138-.12.413-.12.55 0l2.475 2.33c.137.13.137.39 0 .52l-2.475 2.26zm11.89-5.738c0 .193-.205.387-.41.387h-2.2c-.207 0-.413-.194-.413-.387v-2.063c0-.194.206-.387.412-.387h2.2c.206 0 .412.193.412.387v2.063zm-12.507 6.32c.136-.13.067-.26-.14-.26h-1.58c-.206 0-.343.13-.206.323l.413.9c.068.19.275.19.48.06l1.032-1.03zm14.845.128c.07-.194 0-.322-.206-.322H31.5c-.207 0-.276.128-.138.257l1.1 1.03c.137.13.343.13.48-.07l.413-.91zM21.877 58.677c0-.193-.138-.322-.344-.193l-.894.386c-.21.065-.28.258-.07.452l1.1 1.03c.13.13.27.066.27-.127v-1.548h-.07zm0 2.386c0-.194-.207-.387-.413-.387h-2.13c-.207 0-.413.193-.413.387v2.063c0 .193.21.387.42.387h2.2c.21 0 .41-.194.41-.387v-2.063h-.06zm-4.4 1.16c-.205-.13-.412-.13-.48.065l-.482.838c-.068.193.07.322.275.322h1.65c.206 0 .275-.13.137-.257l-1.1-.96zm11.893-2.9c.136-.195.136-.388-.07-.453l-.962-.386c-.207-.065-.344 0-.344.193v1.548c0 .193.137.257.275.128l1.1-1.03zm3.573 2.965c-.07-.194-.275-.194-.482-.065l-1.09 1.032c-.14.13-.07.258.14.258h1.65c.21 0 .347-.13.21-.322l-.412-.9zm-1.925 7.286c0-.194-.206-.387-.412-.387h-2.2c-.206 0-.412.193-.412.387v2.063c0 .194.206.387.412.387h2.2c.206 0 .412-.193.412-.387v-2.063zM29.3 73.83c.206-.065.206-.258.07-.452l-1.1-1.03c-.14-.13-.276-.066-.276.127v1.548c0 .193.137.322.344.193l.962-.386zm-7.423-1.355c0-.193-.138-.257-.275-.128l-1.03 1.03c-.14.13-.14.324.067.453l.96.386c.2.065.34 0 .34-.193v-1.548h-.07zm9.485-3.61c-.138.13-.413.13-.55 0l-2.474-2.322c-.138-.13-.138-.386 0-.515l2.474-2.322c.137-.13.412-.13.55 0l2.474 2.322c.138.13.138.386 0 .515l-2.474 2.322zm-6.117 5.738c-.138.13-.413.13-.55 0l-2.475-2.32c-.137-.13-.137-.388 0-.517l2.475-2.32c.137-.13.412-.13.55 0l2.474 2.32c.13.13.13.387 0 .516l-2.48 2.32zm0-11.413c-.138.13-.413.13-.55 0l-2.475-2.32c-.137-.13-.137-.388 0-.517l2.475-2.256c.137-.13.412-.13.55 0l2.474 2.32c.13.13.13.388 0 .517l-2.48 2.256z"/><path fill-rule="nonzero" d="M119 61c7.17 0 13.048 5.823 13.16 13.017v.268c-.005 1.085-.002 2.47.017 4.044.027 2.31.082 4.59.17 6.73.305 7.38.794 11.12 2.206 11.83L135 95h-32l.447 1.894c1.413-.706 1.9-4.456 2.206-11.84.088-2.137.143-4.42.17-6.736.02-1.575.023-2.96.018-4.046v-.29C105.93 66.82 111.82 61 119 61zm-15.16 13.28c.006 1.076.002 2.45-.017 4.014-.027 2.298-.08 4.562-.168 6.677-.12 2.92-.296 5.37-.535 7.2-.132 1.01-.28 1.82-.442 2.38-.076.27-.15.47-.22.6-.85.443-.513 1.866.542 1.866h32c1.055 0 1.39-1.423.447-1.894.026-.1-.05-.3-.125-.564-.162-.56-.31-1.363-.442-2.373-.238-1.83-.415-4.28-.535-7.19-.087-2.11-.14-4.373-.168-6.67-.02-1.562-.022-2.936-.018-4.012v-.282C134.03 65.7 127.26 59 119 59c-8.28 0-15.065 6.703-15.16 14.977v.303z"/><path fill-rule="nonzero" d="M100.997 97h36.006c.55 0 .997.45.997.998v2.004c0 .552-.445.998-.997.998h-36.006c-.55 0-.997-.45-.997-.998v-2.004c0-.552.445-.998.997-.998zM98 100.002c0 1.653 1.343 2.998 2.997 2.998h36.006c1.657 0 2.997-1.342 2.997-2.998v-2.004c0-1.653-1.343-2.998-2.997-2.998h-36.006C99.34 95 98 96.342 98 97.998v2.004z"/><path fill-rule="nonzero" d="M122 105.01c0 1.65-1.345 2.99-3 2.99-1.658 0-3-1.338-3-2.99V102h-2v3.01c0 2.758 2.238 4.99 5 4.99 2.758 0 5-2.235 5-4.99V102h-2v3.01zm2-47.02c0-2.755-2.242-4.99-5-4.99-2.762 0-5 2.232-5 4.99V61h2v-3.01c0-1.652 1.342-2.99 3-2.99 1.655 0 3 1.34 3 2.99V61h2v-3.01z"/></g></svg>