<!-- Generated by IcoMoon.io -->
<svg version="1.1" xmlns="http://www.w3.org/2000/svg" width="1024" height="1024" viewBox="0 0 1024 1024">
<title></title>
<g id="icomoon-ignore">
</g>
<path fill="#2b57f1" d="M819.582 614.4l-102.4 102.4h102.277c0.043 0 0.093 0 0.143 0 30.478 0 59.378-6.758 85.283-18.857l-1.24 0.52z"></path>
<path fill="#0ac9ba" d="M819.582 614.4l84.064 84.064c70.903-33.086 119.157-103.776 119.157-185.736 0-112.503-90.919-203.77-203.29-204.333h-0.054c-5.878 0-11.68 0.307-17.428 0.799-42.311-121.313-155.731-206.795-289.115-206.795-133.468 0-246.946 85.59-288.541 204.877l-0.651 2.144c-6.697-0.683-13.496-1.024-20.371-1.024-112.271 0.67-203.025 91.838-203.025 204.203s90.754 203.533 202.961 204.202h513.894z"></path>
<path fill="#b97af8" d="M903.646 698.464c-24.665 11.579-53.565 18.336-84.043 18.336-0.050 0-0.101 0-0.151 0h-102.269l-102.018 102.018h102.4v204.233h204.37v-204.233h102.065z"></path>
</svg>
