<!-- Generated by IcoMoon.io -->
<svg version="1.1" xmlns="http://www.w3.org/2000/svg" width="1024" height="1024" viewBox="0 0 1024 1024">
<title></title>
<g id="icomoon-ignore">
</g>
<path fill="#b97af8" d="M819.2 0c-0.043 0-0.094 0-0.145 0-64.705 0-122.387 30.069-159.835 76.996l-0.317 0.411c24.992 18.649 46.842 39.231 66.138 62.043l0.477 0.578 19.995 25.682c15.816 22.233 29.483 47.689 39.779 74.806l0.778 2.335 119.583-119.59 32.119 32.085-136.363 136.369c8.836 34.391 14.909 74.47 16.923 115.615l0.055 1.421 0.546 0.84h0.266c113.108 0 204.8-91.692 204.8-204.8s-91.692-204.8-204.8-204.8v0z"></path>
<path fill="#0ac9ba" d="M818.934 409.6c-112.986-0.116-204.535-91.736-204.535-204.738 0-48.368 16.772-92.819 44.818-127.853l-0.314 0.406c-89.798-66.492-211.135-96.058-353.3-65.126-109.252 24.421-198.537 94.69-248.124 189.077l-0.968 2.022c-118.634 230.571-38.079 459.619 126.444 573.986 14.734 10.695 24.205 27.862 24.205 47.242 0 0.256-0.002 0.512-0.005 0.768v-0.039 197.646h408.835v-152.235h204.042v-254.594l81.087-15.333c11.8-3.238 20.326-13.867 20.326-26.489 0-3.986-0.851-7.774-2.38-11.191l0.070 0.174z"></path>
<path fill="#2b57f1" d="M818.934 409.6l-0.546-0.84c-2.069-42.566-8.142-82.645-17.882-121.266l0.904 4.229-24.986 24.992-80.22-80.213 32.085-32.119 48.101 48.094 9.646-9.639c-11.074-29.452-24.741-54.909-41.267-78.194l0.709 1.053-19.995-25.682c-19.773-23.39-41.623-43.972-65.585-61.885l-1.030-0.736c-27.742 34.632-44.52 79.090-44.52 127.468 0 113.020 91.577 204.651 204.577 204.738h0.008z"></path>
</svg>
